<svg xmlns="http://www.w3.org/2000/svg" height="48" width="48"><path d="M10 17.5 4.5 11.3Q3.65 10.3 4.175 9.15Q4.7 8 6 8H41Q42.2 8 43.1 8.9Q44 9.8 44 11V37Q44 38.2 43.1 39.1Q42.2 40 41 40H13Q11.8 40 10.9 39.1Q10 38.2 10 37ZM8.25 11Q8.25 11 8.25 11Q8.25 11 8.25 11Q8.25 11 8.25 11Q8.25 11 8.25 11Q8.25 11 8.25 11Q8.25 11 8.25 11ZM18 25.5H36Q36.65 25.5 37.075 25.075Q37.5 24.65 37.5 24Q37.5 23.35 37.075 22.925Q36.65 22.5 36 22.5H18Q17.35 22.5 16.925 22.925Q16.5 23.35 16.5 24Q16.5 24.65 16.925 25.075Q17.35 25.5 18 25.5ZM18 31.5H30Q30.65 31.5 31.075 31.075Q31.5 30.65 31.5 30Q31.5 29.35 31.075 28.925Q30.65 28.5 30 28.5H18Q17.35 28.5 16.925 28.925Q16.5 29.35 16.5 30Q16.5 30.65 16.925 31.075Q17.35 31.5 18 31.5ZM18 19.5H36Q36.65 19.5 37.075 19.075Q37.5 18.65 37.5 18Q37.5 17.35 37.075 16.925Q36.65 16.5 36 16.5H18Q17.35 16.5 16.925 16.925Q16.5 17.35 16.5 18Q16.5 18.65 16.925 19.075Q17.35 19.5 18 19.5ZM13 16.4V37Q13 37 13 37Q13 37 13 37H41Q41 37 41 37Q41 37 41 37V11Q41 11 41 11Q41 11 41 11H8.25Z"/></svg>